<?xml version="1.0" standalone="no"?>
<!DOCTYPE svg PUBLIC "-//W3C//DTD SVG 20010904//EN"
 "http://www.w3.org/TR/2001/REC-SVG-20010904/DTD/svg10.dtd">
<svg version="1.0" xmlns="http://www.w3.org/2000/svg"
 width="2176.000000pt" height="2176.000000pt" viewBox="0 0 2176.000000 2176.000000"
 preserveAspectRatio="xMidYMid meet">
<metadata>
Created by potrace 1.14, written by Peter Selinger 2001-2017
</metadata>
<g transform="translate(0.000000,2176.000000) scale(0.100000,-0.100000)"
fill="#000000" stroke="none">
<path d="M0 10880 l0 -10880 10880 0 10880 0 0 10880 0 10880 -10880 0 -10880
0 0 -10880z m5049 8525 c233 -41 442 -144 644 -319 45 -39 261 -231 479 -428
367 -331 401 -364 457 -449 164 -249 242 -495 242 -764 0 -137 -16 -243 -52
-353 -12 -35 -17 -67 -13 -72 5 -4 58 -24 119 -44 l109 -36 36 33 c70 66 140
119 232 174 51 30 125 85 163 122 126 119 361 309 580 470 424 311 981 612
1500 811 572 219 1137 350 1795 417 253 25 951 26 1200 0 821 -84 1479 -260
2188 -583 1232 -562 2302 -1535 2985 -2714 489 -845 785 -1787 872 -2780 22
-249 30 -737 16 -950 -65 -967 -292 -1810 -707 -2631 -234 -463 -527 -907
-841 -1277 l-62 -74 68 -89 c125 -164 212 -363 247 -559 27 -157 10 -368 -41
-500 -4 -12 33 -34 154 -95 l160 -79 48 46 c161 150 392 264 612 302 346 59
690 -41 976 -285 142 -120 998 -988 1065 -1079 75 -101 160 -274 191 -385 31
-114 38 -357 14 -475 -76 -374 -349 -717 -710 -890 -289 -139 -581 -166 -865
-79 -103 31 -278 122 -366 191 -45 35 -282 244 -527 465 -511 462 -534 489
-678 775 -155 309 -191 656 -94 908 4 12 -33 34 -154 94 l-158 79 -59 -59
c-168 -170 -397 -287 -648 -330 -130 -22 -356 -15 -466 15 -245 65 -375 142
-593 351 l-128 123 -187 -91 c-719 -348 -1457 -552 -2312 -639 -250 -25 -950
-25 -1200 0 -934 95 -1738 332 -2505 739 -625 332 -1164 735 -1671 1250 -1019
1035 -1668 2393 -1843 3858 -35 291 -45 477 -45 835 0 443 29 772 105 1180
187 1006 603 1960 1207 2768 l111 148 -73 36 -73 36 -89 -72 c-330 -268 -756
-356 -1161 -240 -174 50 -291 110 -438 225 -100 77 -984 966 -1049 1053 -98
133 -166 270 -208 421 -16 58 -22 113 -25 246 -5 157 -3 178 20 275 43 174
106 309 216 457 195 262 508 460 817 516 105 19 309 20 413 1z m1499 -12098
l682 -682 -2550 -2550 -2549 -2549 -683 679 c-376 374 -683 683 -683 686 0 11
5079 5097 5090 5098 6 1 317 -306 693 -682z"/>
<path d="M4695 18831 c-229 -56 -426 -229 -513 -449 -23 -60 -26 -81 -27 -192
0 -142 16 -199 81 -300 21 -31 239 -258 508 -526 494 -495 537 -532 676 -587
133 -52 300 -59 474 -21 l78 18 -253 128 c-209 105 -259 134 -282 165 -97 130
-32 381 118 452 68 32 102 27 243 -35 182 -81 493 -214 499 -214 11 0 -6 273
-21 350 -37 194 -42 200 -552 660 -243 219 -463 415 -490 435 -154 118 -357
161 -539 116z"/>
<path d="M11579 18129 c-189 -10 -510 -50 -719 -89 -764 -143 -1487 -439
-2147 -877 -79 -52 -143 -98 -143 -102 1 -3 210 -127 466 -275 255 -149 501
-298 547 -332 478 -359 641 -1008 387 -1542 -27 -56 -71 -135 -97 -174 -55
-83 -206 -239 -275 -287 l-48 -32 0 -158 0 -158 73 -13 c148 -26 338 -102 454
-181 49 -34 54 -35 71 -9 21 35 91 71 147 77 207 22 313 -220 161 -368 l-36
-35 47 -82 c27 -44 50 -81 53 -81 3 -1 14 16 25 36 28 52 109 110 170 123 208
43 381 -174 290 -365 -25 -51 -87 -113 -133 -132 -56 -24 -159 -22 -211 4
l-43 22 6 -42 c27 -198 16 -305 -65 -590 -32 -114 -59 -210 -59 -213 0 -3 10
-5 23 -4 66 6 97 -20 97 -78 0 -41 -18 -64 -58 -77 -28 -8 -78 11 -87 33 -6
15 -41 -102 -225 -748 -25 -90 -93 -237 -147 -317 -21 -32 -73 -95 -116 -140
-164 -171 -366 -275 -621 -319 -138 -24 -386 -15 -528 19 -519 126 -883 489
-949 946 -7 52 -10 139 -7 226 l6 142 -34 18 c-39 21 -78 68 -100 121 -23 54
-20 156 6 209 40 82 132 145 211 145 21 0 28 6 34 27 3 14 42 192 85 394 71
332 84 379 126 471 98 214 207 371 357 515 107 102 196 164 320 224 l87 41 0
75 0 76 -32 -8 c-207 -44 -432 -10 -650 101 -126 64 -1122 653 -1185 700 -39
30 -101 87 -138 125 -37 39 -68 69 -69 67 -13 -14 -107 -191 -175 -325 -655
-1309 -786 -2835 -365 -4260 323 -1097 972 -2076 1869 -2820 541 -448 1144
-788 1794 -1013 435 -150 832 -238 1326 -292 269 -30 866 -33 1130 -5 689 72
1254 222 1858 492 l59 26 -70 73 c-148 157 -238 330 -282 547 -26 126 -28 332
-6 460 46 257 172 503 357 694 l90 93 -120 199 -120 200 -88 17 c-124 24 -220
58 -358 125 -298 146 -524 369 -673 667 -69 138 -99 242 -127 444 -32 233 -30
227 -58 234 -36 9 -100 70 -125 118 -50 101 -35 209 41 293 l43 48 -24 161
c-30 206 -34 424 -9 547 96 480 452 831 967 951 59 14 137 21 256 25 152 5
184 3 280 -17 256 -52 456 -159 620 -332 38 -40 88 -102 112 -137 42 -63 44
-65 88 -67 180 -7 268 -225 143 -356 l-41 -43 16 -95 c8 -52 50 -336 93 -630
71 -493 77 -548 78 -700 0 -173 -13 -264 -57 -400 -85 -265 -287 -512 -531
-650 -31 -17 -59 -36 -62 -40 -3 -6 138 -306 149 -316 0 -1 39 5 86 12 327 50
654 -29 911 -220 47 -35 158 -134 246 -220 l161 -157 69 83 c471 564 854 1295
1073 2048 267 918 300 1911 95 2860 -297 1372 -1075 2581 -2205 3424 -455 340
-980 625 -1499 813 -232 84 -607 187 -866 237 -461 90 -971 123 -1476 95z
m446 -1807 c154 -79 193 -289 76 -410 -49 -51 -103 -75 -178 -80 -186 -13
-320 173 -253 350 25 66 87 128 153 152 55 21 150 15 202 -12z m-30 -671 c81
-37 126 -105 127 -190 0 -123 -90 -214 -213 -214 -181 -1 -276 213 -156 350
61 69 161 92 242 54z m2908 -471 c33 -26 41 -63 23 -99 -17 -32 -34 -41 -77
-41 -69 0 -97 89 -43 138 31 27 63 28 97 2z m-2920 -204 c68 -28 115 -118 101
-191 -14 -79 -92 -145 -169 -145 -54 0 -117 31 -145 70 -28 39 -38 121 -21
172 29 87 142 133 234 94z m2487 -202 c59 -35 78 -121 41 -178 -27 -40 -57
-55 -113 -56 -116 -1 -168 148 -77 224 36 31 105 35 149 10z m-585 -33 c123
-56 223 -227 226 -386 1 -38 4 -83 8 -100 4 -16 4 -47 0 -69 -21 -118 -154
-173 -268 -110 l-46 25 -164 -59 -164 -59 52 -5 c92 -9 173 -84 187 -174 22
-152 -108 -275 -258 -243 -100 22 -179 134 -164 231 9 53 39 111 72 137 15 12
25 21 22 21 -4 0 -1613 -574 -1698 -606 -43 -16 -47 -16 -91 3 -140 62 -196
348 -91 463 22 25 225 111 1097 466 1252 510 1183 483 1215 483 14 0 43 -8 65
-18z m-3958 -356 c50 -21 72 -42 94 -90 55 -119 -26 -244 -159 -245 -63 0
-102 18 -137 65 -68 89 -34 219 70 266 49 23 84 24 132 4z m2069 -108 c89 -81
33 -220 -89 -220 -102 0 -160 126 -95 208 26 33 51 44 106 44 34 1 49 -5 78
-32z m1160 -722 c89 -37 154 -137 154 -240 0 -168 -145 -288 -306 -255 -173
36 -260 218 -179 375 62 120 206 172 331 120z m-1067 -840 c93 -30 182 -86
245 -156 59 -65 90 -120 122 -215 23 -71 26 -90 22 -189 -5 -122 -24 -190 -80
-282 -152 -251 -476 -343 -746 -211 -92 45 -205 159 -250 251 -129 267 -49
572 192 737 28 18 86 46 130 62 112 38 248 40 365 3z m3846 -304 c93 -42 148
-129 149 -236 1 -61 -3 -77 -30 -125 -41 -71 -85 -106 -162 -125 -114 -29
-218 11 -282 108 -62 94 -52 229 24 315 67 76 207 106 301 63z m-5060 -1145
c65 -30 102 -68 133 -135 59 -129 -9 -290 -145 -341 -30 -11 -71 -20 -93 -20
-97 0 -197 67 -239 160 -58 129 13 296 147 345 59 22 140 18 197 -9z m1074
-391 c31 -16 41 -33 41 -71 0 -38 -16 -61 -50 -73 -37 -12 -72 -1 -94 31 -37
52 0 121 67 127 4 1 21 -6 36 -14z m-1551 -101 c184 -76 169 -343 -23 -399
-180 -54 -332 135 -245 305 49 95 167 137 268 94z m-465 -488 c103 -43 139
-178 69 -265 -106 -133 -312 -64 -312 105 1 124 128 209 243 160z m2067 -21
c74 -71 36 -199 -64 -217 -99 -19 -181 83 -142 175 33 80 144 102 206 42z
m-2529 -470 c36 -19 69 -70 69 -108 0 -100 -92 -159 -183 -119 -68 30 -92 96
-63 167 28 65 112 93 177 60z m2535 -115 c108 -67 104 -237 -7 -300 -52 -29
-135 -27 -180 3 -55 37 -79 81 -79 146 0 142 146 225 266 151z m-2995 -383
c65 -50 36 -147 -45 -147 -71 0 -105 96 -50 139 30 23 71 27 95 8z m3022 -224
c79 -55 110 -168 72 -258 -35 -84 -100 -125 -198 -125 -56 0 -71 4 -113 33
-69 46 -97 103 -92 187 4 74 32 126 90 165 45 31 62 34 137 30 50 -2 72 -9
104 -32z m-18 -577 c151 -63 203 -265 102 -398 -47 -62 -123 -98 -203 -98
-106 0 -181 43 -230 132 -40 73 -41 170 -3 243 30 59 102 118 163 133 48 12
126 7 171 -12z"/>
<path d="M8011 16613 l-82 -76 29 -31 c71 -74 90 -183 52 -296 -50 -150 -145
-244 -258 -256 -42 -5 -59 0 -160 50 l-112 56 -101 -127 c-115 -144 -113 -135
-47 -248 83 -140 112 -162 663 -483 275 -160 527 -303 560 -318 73 -32 184
-54 271 -54 54 0 64 3 64 18 0 9 -17 118 -38 242 -40 236 -40 271 -5 319 85
114 326 174 455 112 53 -26 73 -52 87 -113 6 -24 26 -88 45 -143 l34 -100 17
40 c10 22 25 76 33 119 13 66 14 95 4 180 -21 185 -87 330 -206 453 -67 68
-100 90 -546 349 -568 330 -624 362 -653 373 -20 8 -35 -1 -106 -66z"/>
<path d="M9014 13494 c-62 -41 -92 -74 -139 -149 -79 -127 -120 -250 -206
-617 -43 -187 -79 -341 -79 -342 0 -1 20 -1 45 -2 60 -1 133 -40 168 -90 34
-48 46 -132 27 -188 -38 -117 -175 -177 -287 -127 l-42 20 -17 -76 c-21 -97
-15 -262 14 -343 69 -197 214 -337 417 -406 105 -35 256 -43 365 -20 210 45
382 192 470 403 38 90 126 486 110 491 -29 10 -71 57 -81 91 -23 76 25 149
103 158 l43 5 60 272 c53 241 60 283 59 376 -1 92 -4 115 -32 190 -41 107
-125 233 -209 310 -36 33 -70 60 -74 60 -5 0 -9 -131 -9 -290 0 -267 -2 -294
-19 -328 -46 -89 -135 -137 -256 -137 -106 0 -160 29 -199 107 -14 28 -26 61
-26 72 1 24 -150 567 -160 579 -4 4 -24 -4 -46 -19z m354 -1177 c21 -14 46
-41 55 -60 21 -44 22 -129 2 -167 -53 -102 -209 -121 -284 -35 -55 63 -61 159
-14 224 52 71 165 89 241 38z"/>
<path d="M14020 12373 c-220 -37 -420 -173 -512 -349 -90 -171 -91 -249 -9
-808 33 -230 61 -422 61 -426 0 -4 11 -11 25 -14 37 -9 96 -65 116 -111 35
-77 16 -176 -45 -236 l-26 -26 55 -87 c30 -48 63 -98 74 -112 l20 -25 14 28
c22 42 60 73 105 86 28 9 49 25 74 57 37 49 120 104 183 122 22 6 73 11 113
10 84 0 163 -32 207 -84 15 -17 62 -103 106 -190 43 -87 84 -158 89 -158 6 0
36 26 68 58 133 133 210 375 171 542 -5 24 -50 323 -99 665 -82 568 -107 706
-130 720 -5 3 -24 -4 -42 -15 -46 -28 -121 -27 -173 3 -91 52 -114 188 -43
264 l20 21 -49 22 c-93 42 -264 61 -373 43z m-24 -106 c44 -40 56 -104 30
-155 -39 -76 -154 -88 -210 -22 -72 87 -14 210 101 210 35 0 50 -6 79 -33z"/>
<path d="M15315 8371 c92 -228 99 -264 66 -336 -10 -22 -41 -62 -70 -88 -138
-129 -343 -155 -452 -58 -38 34 -42 44 -70 156 -17 66 -35 138 -40 159 l-11
39 -23 -40 c-13 -21 -36 -75 -51 -119 -24 -68 -28 -95 -28 -189 0 -94 4 -122
27 -189 40 -114 69 -159 181 -273 l99 -103 36 22 c20 12 103 66 184 120 247
164 452 324 710 556 l118 106 -163 163 c-90 90 -184 178 -211 194 -67 44 -177
76 -289 84 l-97 7 84 -211z"/>
<path d="M16550 7494 c-161 -168 -622 -539 -892 -719 -49 -32 -88 -61 -88 -65
0 -4 29 -35 64 -69 116 -111 243 -150 424 -132 53 6 117 17 142 25 l45 14 -63
1 c-75 1 -108 16 -156 72 -75 88 -85 210 -28 333 33 71 97 139 150 162 67 28
108 19 328 -70 l209 -84 13 46 c18 68 17 216 -3 293 -18 68 -63 169 -93 207
l-18 23 -34 -37z"/>
<path d="M18393 6409 c-29 -6 -53 -14 -53 -18 0 -4 55 -25 122 -46 137 -45
170 -69 188 -135 43 -159 -126 -399 -280 -400 -20 0 -150 38 -290 85 -139 47
-254 84 -255 82 -1 -1 -7 -23 -14 -49 -18 -75 -14 -224 9 -313 22 -87 100
-254 151 -327 29 -41 765 -711 916 -834 62 -51 176 -107 253 -124 75 -18 217
-15 287 5 172 50 324 175 407 335 57 110 71 164 71 280 0 132 -25 219 -94 322
-61 90 -975 1003 -1062 1060 -114 75 -234 101 -356 77z"/>
</g>
</svg>
